<svg xmlns="http://www.w3.org/2000/svg" xmlns:xlink="http://www.w3.org/1999/xlink" width="93" height="87" viewBox="0 0 93 87">
  <defs>
    <filter id="best_food_photography_camera_2" x="0" y="0" width="93" height="87" filterUnits="userSpaceOnUse">
      <feOffset dy="3" input="SourceAlpha"/>
      <feGaussianBlur stdDeviation="3" result="blur"/>
      <feFlood flood-opacity="0.078"/>
      <feComposite operator="in" in2="blur"/>
      <feComposite in="SourceGraphic"/>
    </filter>
  </defs>
  <g id="Group_1409" data-name="Group 1409" transform="translate(-6 -435)">
    <g transform="matrix(1, 0, 0, 1, 6, 435)" filter="url(#best_food_photography_camera_2)">
      <g id="best_food_photography_camera_2-2" data-name="best_food_photography_camera_2" transform="translate(9 6)" fill="#efefef" stroke="#fff" stroke-width="2">
        <rect width="100" height="100" rx="10" stroke="none"/>
        <rect x="1" y="1" width="100" height="100" rx="9" fill="none"/>
      </g>
    </g>
    <g id="Ellipse_312" data-name="Ellipse 312" transform="translate(42 465)" fill="#767676" stroke="#767676" stroke-width="1">
      <circle cx="11.5" cy="11.5" r="11.5" stroke="none"/>
      <circle cx="11.5" cy="11.5" r="11" fill="none"/>
    </g>
    <g id="cancel_1_" data-name="cancel (1)" transform="translate(52.945 454.996) rotate(45)">
      <g id="Group_1360" data-name="Group 1360" transform="translate(0 0.005)">
        <path id="Path_1748" data-name="Path 1748" d="M25.285,4.337a14.807,14.807,0,1,0,0,20.953A14.832,14.832,0,0,0,25.285,4.337ZM20.919,19.179a1.234,1.234,0,1,1-1.746,1.746l-4.364-4.366-4.363,4.364A1.234,1.234,0,0,1,8.7,19.177l4.363-4.364L8.7,10.449A1.234,1.234,0,1,1,10.444,8.7l4.364,4.364L19.173,8.7a1.234,1.234,0,1,1,1.746,1.746l-4.364,4.364Z" transform="translate(0 -0.005)" fill="#efefef"/>
      </g>
    </g>
  </g>
</svg>
