<svg id="Iconly_Bold_Calendar" data-name="Iconly/Bold/Calendar" xmlns="http://www.w3.org/2000/svg" width="23" height="23" viewBox="0 0 23 23">
  <g id="Calendar" transform="translate(2.875 1.917)">
    <path id="Combined_Shape" data-name="Combined Shape" d="M5.388,19.166C1.813,19.166,0,17.525,0,14.289V6.858H17.25v7.431c0,3.236-1.816,4.877-5.4,4.877Zm6.383-4.7a.819.819,0,0,0,.8.815.815.815,0,0,0,0-1.629h-.008A.8.8,0,0,0,11.771,14.467Zm-3.94,0a.794.794,0,1,0,.8-.823H8.621A.818.818,0,0,0,7.831,14.467Zm-3.708-.588a.816.816,0,0,0-.233.588.79.79,0,1,0,.79-.823A.779.779,0,0,0,4.124,13.879Zm7.656-2.889a.79.79,0,1,0,.789-.814A.794.794,0,0,0,11.78,10.989Zm-3.949,0a.794.794,0,1,0,.8-.823H8.621A.818.818,0,0,0,7.831,10.989Zm-3.941,0a.8.8,0,0,0,.79.814.776.776,0,0,0,.557-.235.811.811,0,0,0,.232-.587.8.8,0,0,0-.781-.814H4.681A.808.808,0,0,0,3.891,10.989ZM17.242,6.858H15.917v-.38a4.253,4.253,0,0,0-.4-1.979,2.528,2.528,0,0,0-1.267-1.157A4.338,4.338,0,0,0,12.938,3v.7a.69.69,0,0,1-1.38,0V2.953H5.7V1.583h5.858V.694a.69.69,0,0,1,1.38-.01v.962a6.607,6.607,0,0,1,1.32.267V1.906a.771.771,0,0,0,.082.031l.043.016.06.022c.082.026.157.057.237.09l.041.017a1.12,1.12,0,0,1,.11.047l.035.016c.077.033.154.072.205.1s.083.045.12.066l.05.028a.877.877,0,0,1,.081.051l.053.035a4.076,4.076,0,0,1,.69.559L16.071,3a2.816,2.816,0,0,1,.219.245l.005.012a5.083,5.083,0,0,1,.948,3.233v.37h0Zm-15.909,0H.007V6.49a5.087,5.087,0,0,1,.95-3.231L.97,3.247c.04-.049.081-.1.124-.146L1.182,3l.013-.012a3.9,3.9,0,0,1,.684-.559L1.928,2.4c.03-.02.06-.038.091-.054l.164-.095.1-.05.1-.05c.024-.009.048-.021.072-.032l.072-.031c.11-.046.2-.08.285-.107a.477.477,0,0,1,.1-.038.283.283,0,0,1,.045-.017L3,1.911h0l0,.006A6.6,6.6,0,0,1,4.313,1.65V.7a.69.69,0,1,1,1.38,0V3.71a.69.69,0,1,1-1.38,0v-.7a4.545,4.545,0,0,0-1.319.336C1.861,3.86,1.334,4.856,1.334,6.487v.37h0Z" transform="translate(0 0)" fill="#fff"/>
  </g>
</svg>
