<svg xmlns="http://www.w3.org/2000/svg" width="20.099" height="20.77" viewBox="0 0 20.099 20.77">
  <g id="icon" transform="translate(-711.001 -6190.645)">
    <g id="Group_1381" data-name="Group 1381">
      <path id="Path_1040" data-name="Path 1040" d="M715.642,6195.679h.943a.576.576,0,0,0,.629-.5v-4.029a.575.575,0,0,0-.629-.5h-.943a.575.575,0,0,0-.628.5v4.032A.573.573,0,0,0,715.642,6195.679Z" fill="#95989a"/>
      <path id="Path_1041" data-name="Path 1041" d="M725.514,6195.679h.944a.576.576,0,0,0,.629-.5v-4.029a.575.575,0,0,0-.629-.5h-.944a.572.572,0,0,0-.627.5v4.032A.575.575,0,0,0,725.514,6195.679Z" fill="#95989a"/>
      <path id="Path_1042" data-name="Path 1042" d="M730.345,6192.573h-2.507v3.089a1.325,1.325,0,0,1-1.381,1.251h-.944a1.324,1.324,0,0,1-1.385-1.251v-3.089h-6.161v3.089a1.323,1.323,0,0,1-1.385,1.251h-.94a1.323,1.323,0,0,1-1.379-1.251v-3.089h-2.507a.756.756,0,0,0-.755.755v17.335a.754.754,0,0,0,.755.752h18.589a.753.753,0,0,0,.755-.751h0v-17.335a.755.755,0,0,0-.755-.755Zm-.266,10.943v5.9a.238.238,0,0,1-.237.239H712.257a.239.239,0,0,1-.238-.239v-10.682a.239.239,0,0,1,.238-.239h17.585a.238.238,0,0,1,.237.239Z" fill="#95989a"/>
      <rect id="Rectangle_491" data-name="Rectangle 491" width="2.353" height="2.354" transform="translate(713.822 6202.757)" fill="#95989a"/>
      <rect id="Rectangle_492" data-name="Rectangle 492" width="2.353" height="2.354" transform="translate(717.826 6202.757)" fill="#95989a"/>
      <rect id="Rectangle_493" data-name="Rectangle 493" width="2.352" height="2.354" transform="translate(721.791 6202.757)" fill="#95989a"/>
      <rect id="Rectangle_494" data-name="Rectangle 494" width="2.354" height="2.354" transform="translate(725.794 6202.757)" fill="#95989a"/>
      <rect id="Rectangle_495" data-name="Rectangle 495" width="2.354" height="2.354" transform="translate(713.871 6206.15)" fill="#95989a"/>
      <rect id="Rectangle_496" data-name="Rectangle 496" width="2.353" height="2.354" transform="translate(717.876 6206.15)" fill="#95989a"/>
      <rect id="Rectangle_497" data-name="Rectangle 497" width="2.352" height="2.354" transform="translate(721.841 6206.15)" fill="#95989a"/>
      <rect id="Rectangle_498" data-name="Rectangle 498" width="2.353" height="2.354" transform="translate(725.845 6206.15)" fill="#95989a"/>
      <rect id="Rectangle_499" data-name="Rectangle 499" width="2.353" height="2.353" transform="translate(721.806 6199.421)" fill="#95989a"/>
      <rect id="Rectangle_500" data-name="Rectangle 500" width="2.352" height="2.353" transform="translate(725.813 6199.421)" fill="#95989a"/>
    </g>
  </g>
</svg>
