<svg xmlns="http://www.w3.org/2000/svg" width="110" height="137.16" viewBox="0 0 110 137.16">
  <g id="Group_1814" data-name="Group 1814" transform="translate(-133 -369.84)">
    <ellipse id="Ellipse_329" data-name="Ellipse 329" cx="55" cy="7" rx="55" ry="7" transform="translate(133 493)" fill="#dedede"/>
    <g id="salon" transform="translate(140.007 369.839)">
      <path id="Path_1872" data-name="Path 1872" d="M91.847,86.592l.12-.12-70.3-70.3-8.012-.024h0L.413,29.388a1.412,1.412,0,0,0,2,2L12.656,21.139h0l2.021,2.021L4.431,33.406a1.412,1.412,0,0,0,2,2L16.673,25.157l2.021,2.021L8.449,37.424a1.412,1.412,0,0,0,2,2L20.691,29.175,22.712,31.2,12.466,41.442a1.412,1.412,0,0,0,2,2L24.709,33.193l2.021,2.021L16.484,45.459a1.412,1.412,0,0,0,2,2L28.727,37.211l2.021,2.021L20.5,49.477a1.412,1.412,0,0,0,2,2L32.745,41.229l2.021,2.021L24.52,53.5a1.412,1.412,0,0,0,2,2L36.763,45.247l2.021,2.021L28.538,57.513a1.412,1.412,0,0,0,2,2L40.781,49.265,58.873,67.357,48.627,77.6a1.412,1.412,0,0,0,2,2L60.87,69.354l2.021,2.021L52.645,81.621a1.412,1.412,0,0,0,2,2L64.888,73.372l2.021,2.021L56.663,85.638a1.412,1.412,0,0,0,2,2L68.906,77.39l2.021,2.021L60.682,89.657a1.412,1.412,0,0,0,2,2L72.925,81.408l2.021,2.021L64.7,93.674a1.412,1.412,0,0,0,2,2L76.943,85.426l2.021,2.021L68.718,97.692a1.412,1.412,0,0,0,2,2L80.961,89.444l2.021,2.021,8.012,2.021A5.653,5.653,0,0,0,91.847,86.592Z" transform="translate(0 -13.151)" fill="#e9c278"/>
      <path id="Path_1873" data-name="Path 1873" d="M151.844,75.339,83.588,7.082a7.068,7.068,0,0,0-9.985,0l70.349,70.349.023.023a2.815,2.815,0,0,1-.053,3.954L132.683,92.646a1.412,1.412,0,0,0,2,2L144.926,84.4l2.021,2.021L136.7,96.663a1.412,1.412,0,0,0,2,2L151.94,85.419a7.016,7.016,0,0,0,2.067-5.111A7.238,7.238,0,0,0,151.844,75.339Z" transform="translate(-59.949 -4.086)" fill="#e9c278"/>
      <path id="Path_1874" data-name="Path 1874" d="M100.344,4.543h0L31.962,59.105s-2.708,2.372-4.268,3.784A11.3,11.3,0,1,0,27,77.875l18.7-4.865h0q28.318-31.5,54.867-64.639A2.877,2.877,0,0,0,100.344,4.543ZM22.9,73.984A5.648,5.648,0,1,1,22.9,66,5.656,5.656,0,0,1,22.9,73.984Z" transform="translate(-6.201 -3.699)" fill="#6c7a88"/>
      <path id="Path_1875" data-name="Path 1875" d="M112.138,73.506c1.264-1.4,2.442-2.795,3.7-4.2a15.869,15.869,0,0,0-1.566-1.226,6.317,6.317,0,0,1-2.8-4.566c0-.027-.007-.055-.01-.082a6.566,6.566,0,0,1,1.864-5.444L170.49.844a2.878,2.878,0,0,0-3.829-.215q-30.9,24.682-60.414,51.007l0,0c-1.405,1.253-2.736,2.51-4.137,3.768h0a10.848,10.848,0,0,1-.719,14.523l-4.247,4.246c-.033.034-.064.069-.1.1l0,0V74.3l0,0h0a11.3,11.3,0,0,0,15.975,15.972h0a11.292,11.292,0,0,0,0-15.972A11.45,11.45,0,0,0,112.138,73.506ZM101.04,86.28a5.648,5.648,0,1,1,9.642-3.993A5.653,5.653,0,0,1,101.04,86.28Z" transform="translate(-76.347 0)" fill="#4d5967"/>
    </g>
  </g>
</svg>
