<svg id="Iconly_Bold_Document" data-name="Iconly/Bold/Document" xmlns="http://www.w3.org/2000/svg" width="21" height="21" viewBox="0 0 21 21">
  <g id="Document" transform="translate(2.625 1.75)">
    <path id="Document-2" data-name="Document" d="M11.542,17.5H4.208C1.534,17.5,0,15.956,0,13.265V4.227A4.3,4.3,0,0,1,1.107,1.112,4.256,4.256,0,0,1,4.208,0h7.334c2.674,0,4.208,1.541,4.208,4.227v9.038A4.28,4.28,0,0,1,14.66,16.4,4.217,4.217,0,0,1,11.542,17.5ZM4.374,12.019a.683.683,0,0,0-.585.327A.688.688,0,0,0,4.36,13.4a.613.613,0,0,0,.085-.006h6.861a.691.691,0,0,0,0-1.373H4.445A.7.7,0,0,0,4.374,12.019Zm.071-3.987a.683.683,0,0,0,0,1.366h6.861a.683.683,0,0,0,0-1.366Zm0-3.963v.009h0a.682.682,0,0,0,0,1.364H7.061a.687.687,0,0,0,0-1.373Z" transform="translate(0)" fill="#fff"/>
  </g>
</svg>
