<svg xmlns="http://www.w3.org/2000/svg" width="21.955" height="21.531" viewBox="0 0 21.955 21.531">
  <g id="health-care" transform="translate(1663.675 -772.165)">
    <path id="Path_1035" data-name="Path 1035" d="M-1645.79,779.6h-2.9v3.332h-3.333v2.9h3.333v3.332h2.9v-3.332h3.333v-2.9h-3.333Z" fill="#429cea"/>
    <path id="Path_1036" data-name="Path 1036" d="M-1653.468,781.477h3.332v-3.332h5.8v3.332h1.681a6.058,6.058,0,0,0-1.879-8.359,6.059,6.059,0,0,0-8.155,1.576,6.057,6.057,0,0,0-8.452-1.394,6.058,6.058,0,0,0-1.4,8.453c.073.1.148.2.226.295l9.62,11.648,2.559-3.1v-3.324h-3.332Z" fill="#95989a"/>
  </g>
</svg>
