<svg xmlns="http://www.w3.org/2000/svg" width="21.958" height="21.533" viewBox="0 0 21.958 21.533">
  <g id="health-care" transform="translate(3197.671 3033.076)">
    <path id="Path_1035" data-name="Path 1035" d="M-3179.783-3025.645h-2.9v3.333h-3.333v2.9h3.333v3.332h2.9v-3.332h3.333v-2.9h-3.333Z" fill="#95989a"/>
    <path id="Path_1036" data-name="Path 1036" d="M-3187.462-3023.763h3.332v-3.333h5.8v3.333h1.681a6.06,6.06,0,0,0-1.879-8.361,6.059,6.059,0,0,0-8.156,1.577,6.059,6.059,0,0,0-8.454-1.394,6.058,6.058,0,0,0-1.394,8.454c.072.1.147.2.226.3l9.621,11.649,2.559-3.1v-3.324h-3.332Z" fill="#95989a"/>
  </g>
</svg>
