<svg xmlns="http://www.w3.org/2000/svg" width="34.633" height="32.324" viewBox="0 0 34.633 32.324">
  <g id="like_1_" data-name="like (1)" transform="translate(-30.556 -91.172)">
    <g id="Group_1664" data-name="Group 1664" transform="translate(30.556 102.716)">
      <g id="Group_1663" data-name="Group 1663" transform="translate(0 0)">
        <path id="Path_2198" data-name="Path 2198" d="M36.328,241.468H31.71a1.155,1.155,0,0,0-1.154,1.154v18.471a1.155,1.155,0,0,0,1.154,1.154h4.618a1.155,1.155,0,0,0,1.154-1.154V242.622A1.154,1.154,0,0,0,36.328,241.468Z" transform="translate(-30.556 -241.468)"/>
      </g>
    </g>
    <g id="Group_1666" data-name="Group 1666" transform="translate(39.792 91.172)">
      <g id="Group_1665" data-name="Group 1665" transform="translate(0 0)">
        <path id="Path_2199" data-name="Path 2199" d="M176.168,105.776a3.631,3.631,0,0,0-3.679-3.06h-9c.765-1.37,1.175-5.243,1.157-6.826a4.807,4.807,0,0,0-4.819-4.718h-.953a1.154,1.154,0,0,0-1.154,1.154c0,2.67-1.039,7.488-3,9.449a12.788,12.788,0,0,1-3.927,2.537v17.322a26.968,26.968,0,0,0,9.523,1.862h7.552a3.51,3.51,0,0,0,3.462-4.739,3.464,3.464,0,0,0,2.309-4.618,3.465,3.465,0,0,0,1.669-5.65A3.456,3.456,0,0,0,176.168,105.776Z" transform="translate(-150.794 -91.172)"/>
      </g>
    </g>
  </g>
</svg>
