<svg xmlns="http://www.w3.org/2000/svg" xmlns:xlink="http://www.w3.org/1999/xlink" width="248.125" height="96.759" viewBox="0 0 248.125 96.759">
  <defs>
    <linearGradient id="linear-gradient" x1="-0.04" y1="0.5" x2="1.042" y2="0.5" gradientUnits="objectBoundingBox">
      <stop offset="0" stop-color="#15a5df"/>
      <stop offset="1" stop-color="#007dca"/>
    </linearGradient>
  </defs>
  <g id="Art" transform="translate(-477.075 -102.574)">
    <g id="Group_25" data-name="Group 25">
      <path id="Path_37" data-name="Path 37" d="M512.4,182.688v8.382a15.239,15.239,0,0,1-8.861,2.635c-6.347,0-26.465-1.557-26.465-28.142s28.381-62.989,54.606-62.989c19.161,0,24.071,19.04,24.071,25.268,0,11.376-6.707,27.063-6.707,27.063l-11.975-.718s8.263-14.49,8.263-30.3c0-5.988-1.437-14.37-8.143-14.37-15.089,0-49.457,28.74-49.457,61.672,0,18.2,8.023,16.166,12.813,16.166S512.4,182.688,512.4,182.688Z" fill="url(#linear-gradient)"/>
      <g id="Group_21" data-name="Group 21">
        <path id="Rectangle_13" data-name="Rectangle 13" d="M3.6,0H10.3a0,0,0,0,1,0,0V33.758a3.6,3.6,0,0,1-3.6,3.6H0a0,0,0,0,1,0,0V3.6A3.6,3.6,0,0,1,3.6,0Z" transform="translate(535.394 161.971)" fill="#93ca3c"/>
        <path id="Rectangle_14" data-name="Rectangle 14" d="M0,0H6.694a3.6,3.6,0,0,1,3.6,3.6V37.363a0,0,0,0,1,0,0H3.6a3.6,3.6,0,0,1-3.6-3.6V0A0,0,0,0,1,0,0Z" transform="translate(521.862 185.801) rotate(-90)" fill="#93ca3c"/>
      </g>
      <g id="Group_22" data-name="Group 22">
        <path id="Path_38" data-name="Path 38" d="M573.661,186.279v-14.3h2.03v6.03h6.8v-6.03h2.029v14.3h-2.029v-6.755h-6.8v6.755Z" fill="#999"/>
        <path id="Path_39" data-name="Path 39" d="M591.509,186.279v-14.3H599.5v1.517h-5.962v4.59h5v1.5h-5v5.178h6.377v1.518Z" fill="#999"/>
        <path id="Path_40" data-name="Path 40" d="M603.918,186.279l5.672-14.3h2.01l5.585,14.3H615l-1.554-3.952h-6.065l-1.578,3.952Zm4.04-5.47h4.891l-2.442-6.175Z" fill="#999"/>
        <path id="Path_41" data-name="Path 41" d="M622.023,186.279v-14.3h2.029v12.783h6.436v1.518Z" fill="#999"/>
        <path id="Path_42" data-name="Path 42" d="M638.153,186.279V173.495h-5.072v-1.517h12.174v1.517h-5.073v12.784Z" fill="#999"/>
        <path id="Path_43" data-name="Path 43" d="M650.037,186.279v-14.3h2.029v6.03h6.8v-6.03H660.9v14.3h-2.029v-6.755h-6.8v6.755Z" fill="#999"/>
        <path id="Path_44" data-name="Path 44" d="M678.095,185.544a9.926,9.926,0,0,1-4.619,1.093,6.686,6.686,0,0,1-5.15-1.953,9.31,9.31,0,0,1,.034-11.1,6.822,6.822,0,0,1,5.223-1.967,19.4,19.4,0,0,1,4.493.628v1.9a15.176,15.176,0,0,0-4.532-1.015,4.373,4.373,0,0,0-3.6,1.575,6.891,6.891,0,0,0-1.276,4.445,6.381,6.381,0,0,0,1.362,4.319,4.673,4.673,0,0,0,3.73,1.575,9.238,9.238,0,0,0,4.339-1.245Z" fill="#999"/>
        <path id="Path_45" data-name="Path 45" d="M682.724,186.279l5.673-14.3h2.01l5.585,14.3H693.8l-1.554-3.952h-6.065l-1.578,3.952Zm4.041-5.47h4.891l-2.442-6.175Z" fill="#999"/>
        <path id="Path_46" data-name="Path 46" d="M700.831,186.279v-14.3h4.329a4.825,4.825,0,0,1,3.155.908,3.229,3.229,0,0,1,1.1,2.638,4.079,4.079,0,0,1-.758,2.426,4.819,4.819,0,0,1-2.13,1.633l4.773,6.7H708.8l-4.075-6.049h-1.888v6.049Zm2.01-7.566h.658a4.579,4.579,0,0,0,2.857-.763,2.661,2.661,0,0,0,.978-2.233q0-2.223-3.215-2.222h-1.278Z" fill="#999"/>
        <path id="Path_47" data-name="Path 47" d="M716.51,186.279v-14.3H724.5v1.517H718.54v4.59h4.995v1.5H718.54v5.178h6.377v1.518Z" fill="#999"/>
      </g>
      <g id="Group_24" data-name="Group 24">
        <g id="Group_23" data-name="Group 23">
          <path id="Path_48" data-name="Path 48" d="M590.36,121.8a9.94,9.94,0,0,1,7.664,3.166c1.2-1.2,3.832-4.071,4.55-5.029-1.352-1.879-5.029-4.072-11.256-4.072-13.652,0-17.005,9.58-17.005,22.274,0,11.5,6.706,17.963,15.807,17.963,6.706,0,10.3-1.916,12.454-4.311-1.437-1.677-2.634-3.353-4.071-4.79-.854,1.017-2.874,2.634-8.383,2.634-2.634,0-8.382-2.634-8.382-11.5,0,0,.129-5.513.239-6.945C582.456,124.967,586.552,121.8,590.36,121.8Z" fill="#0079bc"/>
          <path id="Path_49" data-name="Path 49" d="M615.252,149.2a2.621,2.621,0,0,1-.475-1.683V113.394h-6.348v34.062a8.542,8.542,0,0,0,1.827,5.84,6.525,6.525,0,0,0,5.164,2.071h3.452v-5.581h-2.283A1.619,1.619,0,0,1,615.252,149.2Z" fill="#0079bc"/>
          <path id="Path_50" data-name="Path 50" d="M629.457,111.795H628.8a4.054,4.054,0,1,0,0,8.108h.661a4.054,4.054,0,1,0,0-8.108Z" fill="#0079bc"/>
          <rect id="Rectangle_15" data-name="Rectangle 15" width="6.56" height="30.495" transform="translate(625.953 124.728)" fill="#0079bc"/>
          <path id="Path_51" data-name="Path 51" d="M656.217,123.77a8.99,8.99,0,0,0-5.047,1.5,10.438,10.438,0,0,0-3.075,3.191V124.69h-6.481v30.533h6.481V135.9a5.833,5.833,0,0,1,1.6-4.383,6.648,6.648,0,0,1,4.608-2,4.986,4.986,0,0,1,4.167,1.723c1.118,1.177,1.2,3.323,1.2,5.48v18.5h6.961v-19.01c0-3.961-.428-7.026-2.243-9.193S659.532,123.77,656.217,123.77Z" fill="#0079bc"/>
        </g>
        <rect id="Rectangle_16" data-name="Rectangle 16" width="7.185" height="39.117" transform="translate(675.863 116.106)" fill="#1eaadf"/>
        <path id="Path_52" data-name="Path 52" d="M715.52,153.838c.063-.032.128-.063.19-.1a13.6,13.6,0,0,0,5.595-5.409,16.154,16.154,0,0,0,1.979-8.1v-8.979a16.157,16.157,0,0,0-1.979-8.1,13.6,13.6,0,0,0-5.595-5.409,19.193,19.193,0,0,0-16.706,0,13.591,13.591,0,0,0-5.594,5.409,16.148,16.148,0,0,0-1.98,8.1v8.979a16.145,16.145,0,0,0,1.98,8.1A13.591,13.591,0,0,0,699,153.742a17.6,17.6,0,0,0,8.353,1.913c.184,0,.366,0,.548-.007l10.886,8.169,6.409-3.642Zm-3.364-5.131a9.5,9.5,0,0,1-9.119,0,7.838,7.838,0,0,1-3.05-3.308,10.9,10.9,0,0,1-1.079-4.963v-9.381a10.9,10.9,0,0,1,1.079-4.963,7.838,7.838,0,0,1,3.05-3.308,9.5,9.5,0,0,1,9.119,0,7.844,7.844,0,0,1,3.05,3.308,10.9,10.9,0,0,1,1.078,4.963v9.381a10.9,10.9,0,0,1-1.078,4.963A7.844,7.844,0,0,1,712.156,148.707Z" fill="#1eaadf"/>
      </g>
    </g>
  </g>
</svg>
