<svg id="Iconly_Bold_Location" data-name="Iconly/Bold/Location" xmlns="http://www.w3.org/2000/svg" width="21" height="21" viewBox="0 0 21 21">
  <g id="Location" transform="translate(3.062 1.75)">
    <path id="Location-2" data-name="Location" d="M7.407,17.5a.914.914,0,0,1-.59-.217,19.2,19.2,0,0,1-4.892-4.558A9.425,9.425,0,0,1,0,7.341,7.287,7.287,0,0,1,2.194,2.147,7.44,7.44,0,0,1,7.448,0h.016a7.518,7.518,0,0,1,5.249,2.179A7.392,7.392,0,0,1,14.875,7.4v.044c-.033,1.634-.648,4.174-3.395,7A19.4,19.4,0,0,1,8,17.281.917.917,0,0,1,7.407,17.5ZM7.464,5.189A2.348,2.348,0,0,0,5.11,7.525a2.3,2.3,0,0,0,.678,1.636,2.362,2.362,0,0,0,1.649.691h.027a2.347,2.347,0,0,0,1.654-.665,2.317,2.317,0,0,0,.71-1.662A2.353,2.353,0,0,0,7.464,5.189Z" transform="translate(0 0)" fill="#fff"/>
  </g>
</svg>
