<svg xmlns="http://www.w3.org/2000/svg" width="43" height="43" viewBox="0 0 43 43">
  <g id="Group_1809" data-name="Group 1809" transform="translate(-273 -52)">
    <rect id="Rectangle_841" data-name="Rectangle 841" width="43" height="43" rx="15" transform="translate(273 52)" fill="#246269"/>
    <g id="bell_1_" data-name="bell (1)" transform="translate(285 64)">
      <g id="Group_1647" data-name="Group 1647" transform="translate(8.131 0)">
        <path id="Path_2190" data-name="Path 2190" d="M12.682,3.2A.383.383,0,0,1,12.3,2.82V1.533a.766.766,0,0,0-1.533,0V2.82a.383.383,0,1,1-.766,0V1.533a1.533,1.533,0,1,1,3.065,0V2.82A.383.383,0,0,1,12.682,3.2Z" transform="translate(-10 0)" fill="#fff"/>
      </g>
      <g id="Group_1648" data-name="Group 1648" transform="translate(6.981 15.326)">
        <path id="Path_2191" data-name="Path 2191" d="M11.182,23.065A2.685,2.685,0,0,1,8.5,20.383a.383.383,0,0,1,.766,0,1.916,1.916,0,1,0,3.832,0,.383.383,0,0,1,.766,0A2.685,2.685,0,0,1,11.182,23.065Z" transform="translate(-8.5 -20)" fill="#fff"/>
      </g>
      <g id="Group_1649" data-name="Group 1649" transform="translate(2 2.299)">
        <path id="Path_2192" data-name="Path 2192" d="M16.177,16.794H3.149A1.15,1.15,0,0,1,2.4,14.771a5.328,5.328,0,0,0,1.9-4.078V8.364a5.364,5.364,0,0,1,10.728,0v2.328a5.322,5.322,0,0,0,1.891,4.073,1.15,1.15,0,0,1-.741,2.028ZM9.663,3.766a4.6,4.6,0,0,0-4.6,4.6v2.328A6.088,6.088,0,0,1,2.9,15.351a.383.383,0,0,0,.246.677H16.177a.383.383,0,0,0,.249-.674,6.093,6.093,0,0,1-2.165-4.661V8.364a4.6,4.6,0,0,0-4.6-4.6Z" transform="translate(-2 -3)" fill="#fff"/>
      </g>
    </g>
  </g>
</svg>
