<svg xmlns="http://www.w3.org/2000/svg" width="48.89" height="7.83" viewBox="0 0 48.89 7.83">
  <g id="Group_1818" data-name="Group 1818" transform="translate(42.143 -0.471)">
    <path id="Icon_awesome-star" data-name="Icon awesome-star" d="M5.093.271l-1,2.025L1.86,2.622a.49.49,0,0,0-.271.835L3.206,5.032,2.824,7.257a.489.489,0,0,0,.709.515l2-1.051,2,1.051a.489.489,0,0,0,.709-.515L7.857,5.032,9.474,3.457A.49.49,0,0,0,9.2,2.622L6.969,2.3,5.97.271A.49.49,0,0,0,5.093.271Z" transform="translate(-43.584 0.472)" fill="#ffe09b"/>
    <path id="Icon_awesome-star-2" data-name="Icon awesome-star" d="M5.093.271l-1,2.025L1.86,2.622a.49.49,0,0,0-.271.835L3.206,5.032,2.824,7.257a.489.489,0,0,0,.709.515l2-1.051,2,1.051a.489.489,0,0,0,.709-.515L7.857,5.032,9.474,3.457A.49.49,0,0,0,9.2,2.622L6.969,2.3,5.97.271A.49.49,0,0,0,5.093.271Z" transform="translate(-33.407 0.472)" fill="#ffe09b"/>
    <path id="Icon_awesome-star-3" data-name="Icon awesome-star" d="M5.093.271l-1,2.025L1.86,2.622a.49.49,0,0,0-.271.835L3.206,5.032,2.824,7.257a.489.489,0,0,0,.709.515l2-1.051,2,1.051a.489.489,0,0,0,.709-.515L7.857,5.032,9.474,3.457A.49.49,0,0,0,9.2,2.622L6.969,2.3,5.97.271A.49.49,0,0,0,5.093.271Z" transform="translate(-23.23 0.472)" fill="#ffe09b"/>
    <path id="Icon_awesome-star-4" data-name="Icon awesome-star" d="M5.093.271l-1,2.025L1.86,2.622a.49.49,0,0,0-.271.835L3.206,5.032,2.824,7.257a.489.489,0,0,0,.709.515l2-1.051,2,1.051a.489.489,0,0,0,.709-.515L7.857,5.032,9.474,3.457A.49.49,0,0,0,9.2,2.622L6.969,2.3,5.97.271A.49.49,0,0,0,5.093.271Z" transform="translate(-13.052 0.472)" fill="#ffe09b"/>
    <path id="Icon_awesome-star-5" data-name="Icon awesome-star" d="M5.093.271l-1,2.025L1.86,2.622a.49.49,0,0,0-.271.835L3.206,5.032,2.824,7.257a.489.489,0,0,0,.709.515l2-1.051,2,1.051a.489.489,0,0,0,.709-.515L7.857,5.032,9.474,3.457A.49.49,0,0,0,9.2,2.622L6.969,2.3,5.97.271A.49.49,0,0,0,5.093.271Z" transform="translate(-2.875 0.472)" fill="#dbdbdb"/>
  </g>
</svg>
