<svg xmlns="http://www.w3.org/2000/svg" width="62" height="62" viewBox="0 0 62 62">
  <g id="Group_1812" data-name="Group 1812" transform="translate(-117 -409)">
    <circle id="Ellipse_169" data-name="Ellipse 169" cx="31" cy="31" r="31" transform="translate(117 409)" fill="#ededed"/>
    <g id="like_1_" data-name="like (1)" transform="translate(107.444 337.828)">
      <g id="Group_1664" data-name="Group 1664" transform="translate(30.556 98.537)">
        <g id="Group_1663" data-name="Group 1663" transform="translate(0 0)">
          <path id="Path_2198" data-name="Path 2198" d="M34.239,241.468H31.293a.737.737,0,0,0-.737.737v11.784a.737.737,0,0,0,.737.737h2.946a.737.737,0,0,0,.737-.737V242.2A.737.737,0,0,0,34.239,241.468Z" transform="translate(-30.556 -241.468)"/>
        </g>
      </g>
      <g id="Group_1666" data-name="Group 1666" transform="translate(36.448 91.172)">
        <g id="Group_1665" data-name="Group 1665" transform="translate(0 0)">
          <path id="Path_2199" data-name="Path 2199" d="M166.983,100.49a2.316,2.316,0,0,0-2.347-1.952h-5.742a12.717,12.717,0,0,0,.738-4.355,3.067,3.067,0,0,0-3.074-3.01h-.608a.736.736,0,0,0-.737.737c0,1.7-.663,4.777-1.914,6.028a8.159,8.159,0,0,1-2.505,1.619v11.052a17.206,17.206,0,0,0,6.075,1.188h4.818a2.24,2.24,0,0,0,2.209-3.024,2.21,2.21,0,0,0,1.473-2.946,2.211,2.211,0,0,0,1.065-3.6A2.205,2.205,0,0,0,166.983,100.49Z" transform="translate(-150.794 -91.172)"/>
        </g>
      </g>
    </g>
  </g>
</svg>
