<svg xmlns="http://www.w3.org/2000/svg" width="21.176" height="21.551" viewBox="0 0 21.176 21.551">
  <g id="user" transform="translate(-1213.664 -771.91)">
    <path id="Path_1037" data-name="Path 1037" d="M1234.532,787.834l-.536-.1a.732.732,0,0,1-.579-.859.719.719,0,0,1,.128-.293l.337-.459a.37.37,0,0,0-.037-.482l-.728-.728a.372.372,0,0,0-.47-.045l-.452.3a.729.729,0,0,1-1.135-.495l-.086-.563a.372.372,0,0,0-.37-.311h-1.028a.373.373,0,0,0-.365.3l-.132.693a.736.736,0,0,1-.722.595.725.725,0,0,1-.408-.128l-.584-.395a.374.374,0,0,0-.471.045l-.727.728a.371.371,0,0,0-.038.482l.338.459a.732.732,0,0,1-.452,1.152l-.536.1a.374.374,0,0,0-.3.365v1.028a.372.372,0,0,0,.315.368l.563.086a.732.732,0,0,1,.495,1.135l-.3.452a.37.37,0,0,0,.045.47l.728.728a.372.372,0,0,0,.482.037l.459-.337a.718.718,0,0,1,.424-.135.738.738,0,0,1,.722.6l.1.536a.373.373,0,0,0,.366.3h1.028a.371.371,0,0,0,.368-.315l.061-.4a.731.731,0,0,1,.727-.622.723.723,0,0,1,.43.143l.323.237a.371.371,0,0,0,.483-.037l.727-.728a.37.37,0,0,0,.045-.47l-.3-.452a.734.734,0,0,1,.495-1.135l.563-.086a.371.371,0,0,0,.315-.368V788.2A.372.372,0,0,0,1234.532,787.834Zm-.441,1.075-.248.038a1.476,1.476,0,0,0-1,2.285l.135.2-.285.285-.067-.048a1.474,1.474,0,0,0-2.334.961l-.012.081h-.4l-.045-.235a1.474,1.474,0,0,0-2.322-.911l-.2.148-.285-.285.134-.2a1.476,1.476,0,0,0-1-2.285l-.248-.037v-.4l.235-.045a1.477,1.477,0,0,0,.911-2.322l-.149-.2.285-.285.33.224a1.474,1.474,0,0,0,2.047-.39,1.447,1.447,0,0,0,.229-.553l.075-.391h.4l.038.248a1.472,1.472,0,0,0,2.285,1l.2-.134.285.285-.148.2a1.475,1.475,0,0,0,.911,2.322l.235.045v.4Z" fill="#95989a"/>
    <path id="Path_1038" data-name="Path 1038" d="M1230.005,786.772a1.858,1.858,0,1,0,1.856,1.859v0A1.859,1.859,0,0,0,1230.005,786.772Zm0,2.971a1.114,1.114,0,1,1,1.114-1.114A1.114,1.114,0,0,1,1230.005,789.743Z" fill="#95989a"/>
    <path id="Path_1039" data-name="Path 1039" d="M1225.288,790.692l-.911-.141a.372.372,0,0,1-.315-.367v-2.9a.373.373,0,0,1,.3-.365l.847-.162-.546-.743a.373.373,0,0,1,.037-.483l2.055-2.053a.372.372,0,0,1,.47-.045l.146.1c.016-.045.036-.088.051-.133a1.351,1.351,0,0,0,.775-1.222v-1.319a1.352,1.352,0,0,0-.329-.88v-1.737a3,3,0,0,0-.7-2.178,5.18,5.18,0,0,0-6.579,0,3,3,0,0,0-.7,2.175v1.737a1.353,1.353,0,0,0-.329.88v1.316a1.351,1.351,0,0,0,.5,1.048,6.994,6.994,0,0,0,1.149,2.374v1.074a.828.828,0,0,1-.431.728L1217.838,789a2.779,2.779,0,0,0-.279.176,9.476,9.476,0,1,1,15.7-5.7h0l.641.64a10.214,10.214,0,1,0-16.923,5.537l-.01.009.331.279c.021.018.045.033.066.051.176.146.359.285.544.419.061.043.121.087.182.129q.3.2.61.389l.137.079c.227.129.46.252.7.364l.053.024a10.156,10.156,0,0,0,2.471.782l.068.012c.269.046.541.083.816.108l.1.008c.275.023.552.037.832.037s.552-.014.824-.036l.1-.008c.138-.013.275-.036.411-.054l-.367-.368a.371.371,0,0,1-.045-.471Z" fill="#95989a"/>
  </g>
</svg>
