<svg xmlns="http://www.w3.org/2000/svg" width="21.055" height="21.429" viewBox="0 0 21.055 21.429">
  <g id="user" transform="translate(-327.039 -768.679)">
    <path id="Path_1037" data-name="Path 1037" d="M347.787,784.513l-.532-.1a.729.729,0,0,1-.45-1.145l.336-.456a.37.37,0,0,0-.037-.48l-.724-.724a.371.371,0,0,0-.468-.044l-.449.3a.727.727,0,0,1-1.128-.492l-.086-.56a.367.367,0,0,0-.367-.309h-1.023a.369.369,0,0,0-.362.3l-.132.689a.731.731,0,0,1-.717.591.717.717,0,0,1-.406-.126l-.581-.393a.371.371,0,0,0-.468.044l-.723.724a.368.368,0,0,0-.037.48l.335.456a.727.727,0,0,1-.449,1.145l-.533.1a.369.369,0,0,0-.3.362V785.9a.369.369,0,0,0,.313.365l.56.086a.729.729,0,0,1,.609.831.738.738,0,0,1-.117.3l-.3.449a.37.37,0,0,0,.045.468l.724.724a.371.371,0,0,0,.48.037l.456-.335a.718.718,0,0,1,.422-.134.73.73,0,0,1,.717.592l.1.532a.37.37,0,0,0,.363.3h1.023a.369.369,0,0,0,.365-.314l.061-.393a.727.727,0,0,1,.723-.618.714.714,0,0,1,.427.142l.322.236a.368.368,0,0,0,.48-.037l.723-.724a.37.37,0,0,0,.045-.468l-.3-.449a.727.727,0,0,1,.194-1.011.714.714,0,0,1,.3-.117l.559-.086a.369.369,0,0,0,.314-.365v-1.028A.371.371,0,0,0,347.787,784.513Zm-.439,1.069-.246.038a1.467,1.467,0,0,0-.991,2.272l.134.2-.284.284-.066-.048a1.464,1.464,0,0,0-2.32.956l-.012.079h-.4l-.045-.233a1.465,1.465,0,0,0-2.308-.906l-.2.148-.283-.284.133-.2a1.467,1.467,0,0,0-.99-2.272l-.247-.037v-.4l.234-.045a1.468,1.468,0,0,0,.906-2.308l-.148-.2.283-.283.329.222a1.465,1.465,0,0,0,2.263-.937l.074-.389h.4l.038.247a1.464,1.464,0,0,0,1.668,1.227,1.444,1.444,0,0,0,.6-.237l.2-.133.283.283-.147.2a1.467,1.467,0,0,0,.906,2.308l.233.045v.4Z" fill="#95989a"/>
    <path id="Path_1038" data-name="Path 1038" d="M343.286,783.456a1.847,1.847,0,1,0,1.845,1.849v0A1.849,1.849,0,0,0,343.286,783.456Zm0,2.955a1.108,1.108,0,1,1,1.108-1.108A1.108,1.108,0,0,1,343.286,786.411Z" fill="#95989a"/>
    <path id="Path_1039" data-name="Path 1039" d="M338.6,787.354l-.906-.14a.37.37,0,0,1-.314-.365v-2.888a.369.369,0,0,1,.3-.362l.842-.162-.543-.738a.37.37,0,0,1,.037-.48l2.042-2.041a.37.37,0,0,1,.468-.045l.145.1c.016-.044.036-.087.051-.132a1.339,1.339,0,0,0,.77-1.215v-1.312a1.346,1.346,0,0,0-.327-.875v-1.727a2.974,2.974,0,0,0-.7-2.165,5.147,5.147,0,0,0-6.541,0,2.98,2.98,0,0,0-.7,2.162V776.7a1.346,1.346,0,0,0-.327.875v1.309a1.342,1.342,0,0,0,.5,1.042,6.923,6.923,0,0,0,1.143,2.36v1.069a.825.825,0,0,1-.43.723l-2.919,1.6a2.76,2.76,0,0,0-.278.176,9.423,9.423,0,1,1,15.607-5.668h0l.638.636a10.156,10.156,0,1,0-16.826,5.505l-.01.009.329.277c.021.018.045.033.066.051.175.145.356.284.541.416.06.043.119.087.18.129q.3.2.607.387l.136.078c.226.129.458.251.7.362l.053.024a10.04,10.04,0,0,0,2.457.777l.067.012c.268.046.538.083.812.108l.1.008c.274.023.549.037.828.037s.549-.014.82-.036l.1-.008c.137-.013.273-.036.409-.054l-.365-.366a.368.368,0,0,1-.045-.468Z" fill="#429cea"/>
  </g>
</svg>
