<svg xmlns="http://www.w3.org/2000/svg" width="19.642" height="21.606" viewBox="0 0 19.642 21.606">
  <g id="notification_6_" data-name="notification (6)" transform="translate(-23.272)">
    <g id="Group_2453" data-name="Group 2453" transform="translate(23.272)">
      <path id="Path_3223" data-name="Path 3223" d="M41.932,15.714H40.95V7.857a7.857,7.857,0,1,0-15.714,0v7.857h-.982a.982.982,0,1,0,0,1.964h4.911a3.928,3.928,0,0,0,7.857,0h4.911a.982.982,0,1,0,0-1.964Zm-8.839,3.928a1.966,1.966,0,0,1-1.964-1.964h3.928A1.966,1.966,0,0,1,33.093,19.642Zm5.893-3.928H27.2V7.857a5.893,5.893,0,1,1,11.785,0Z" transform="translate(-23.272)" fill="#366b75"/>
    </g>
  </g>
</svg>
