<svg id="Calendar_Alt_Icon_-_Regular___Font_Awesome-34" data-name="Calendar Alt Icon - Regular _ Font Awesome-34" xmlns="http://www.w3.org/2000/svg" width="17.938" height="20.5" viewBox="0 0 17.938 20.5">
  <path id="Path_3429" data-name="Path 3429" d="M0,7.687V18.578A1.922,1.922,0,0,0,1.922,20.5H16.016a1.922,1.922,0,0,0,1.922-1.922V7.687Zm5.125,9.77a.48.48,0,0,1-.48.48h-1.6a.48.48,0,0,1-.48-.48v-1.6a.48.48,0,0,1,.48-.48h1.6a.48.48,0,0,1,.48.48Zm0-5.125a.48.48,0,0,1-.48.48h-1.6a.48.48,0,0,1-.48-.48v-1.6a.48.48,0,0,1,.48-.48h1.6a.48.48,0,0,1,.48.48Zm5.125,5.125a.48.48,0,0,1-.48.48h-1.6a.48.48,0,0,1-.48-.48v-1.6a.48.48,0,0,1,.48-.48h1.6a.48.48,0,0,1,.48.48Zm0-5.125a.48.48,0,0,1-.48.48h-1.6a.48.48,0,0,1-.48-.48v-1.6a.48.48,0,0,1,.48-.48h1.6a.48.48,0,0,1,.48.48Zm5.125,5.125a.48.48,0,0,1-.48.48h-1.6a.48.48,0,0,1-.48-.48v-1.6a.48.48,0,0,1,.48-.48h1.6a.48.48,0,0,1,.48.48Zm0-5.125a.48.48,0,0,1-.48.48h-1.6a.48.48,0,0,1-.48-.48v-1.6a.48.48,0,0,1,.48-.48h1.6a.48.48,0,0,1,.48.48Zm-3.2-7.207h1.281a.641.641,0,0,0,.641-.641V.641A.641.641,0,0,0,13.453,0H12.172a.641.641,0,0,0-.641.641V4.484A.641.641,0,0,0,12.172,5.125Zm-7.687,0H5.766a.641.641,0,0,0,.641-.641V.641A.641.641,0,0,0,5.766,0H4.484a.641.641,0,0,0-.641.641V4.484A.641.641,0,0,0,4.484,5.125Z" fill="#FFFFFF"/>
  <path id="Path_3430" data-name="Path 3430" d="M17.937,65.922v3.2H0v-3.2A1.922,1.922,0,0,1,1.922,64H3.844v1.922a.641.641,0,0,0,.641.641H5.766a.641.641,0,0,0,.641-.641V64h5.125v1.922a.641.641,0,0,0,.641.641h1.281a.641.641,0,0,0,.641-.641V64h1.922a1.922,1.922,0,0,1,1.922,1.922Z" transform="translate(0 -61.438)" fill="#FFFFFF"/>
</svg>
