<svg xmlns="http://www.w3.org/2000/svg" width="36.472" height="36.472" viewBox="0 0 36.472 36.472">
  <g id="cancel_1_" data-name="cancel (1)" transform="translate(0 -0.001)">
    <g id="Group_1360" data-name="Group 1360" transform="translate(0 0.001)">
      <path id="Path_1748" data-name="Path 1748" d="M31.137,5.34a18.235,18.235,0,1,0,0,25.8A18.265,18.265,0,0,0,31.137,5.34ZM25.761,23.617a1.52,1.52,0,1,1-2.15,2.15l-5.375-5.376-5.373,5.375a1.52,1.52,0,0,1-2.15-2.15l5.373-5.375-5.375-5.375a1.52,1.52,0,0,1,2.15-2.15l5.375,5.375,5.375-5.375a1.52,1.52,0,0,1,2.15,2.15l-5.375,5.375Z" transform="translate(0 -0.005)" fill="#fff"/>
    </g>
  </g>
</svg>
