<svg id="Group_1427" data-name="Group 1427" xmlns="http://www.w3.org/2000/svg" width="16.783" height="20.656" viewBox="0 0 16.783 20.656">
  <g id="trash_8_" data-name="trash (8)">
    <path id="Path_1777" data-name="Path 1777" d="M63.169,2.582h-3.55V1.937A1.939,1.939,0,0,0,57.683,0H55.1a1.939,1.939,0,0,0-1.937,1.937v.646h-3.55A1.616,1.616,0,0,0,48,4.2V6.455a.646.646,0,0,0,.646.646H49l.558,11.711a1.934,1.934,0,0,0,1.934,1.844h9.8a1.934,1.934,0,0,0,1.934-1.844L63.785,7.1h.353a.646.646,0,0,0,.646-.646V4.2A1.616,1.616,0,0,0,63.169,2.582Zm-8.714-.646a.646.646,0,0,1,.646-.646h2.582a.646.646,0,0,1,.646.646v.646H54.455ZM49.291,4.2a.323.323,0,0,1,.323-.323H63.169a.323.323,0,0,1,.323.323V5.81h-14.2ZM61.938,18.75a.645.645,0,0,1-.645.615h-9.8a.645.645,0,0,1-.645-.615L50.291,7.1h12.2Z" transform="translate(-48)" fill="#fff"/>
    <path id="Path_1778" data-name="Path 1778" d="M240.646,217.683a.646.646,0,0,0,.646-.646v-8.392a.646.646,0,0,0-1.291,0v8.392A.646.646,0,0,0,240.646,217.683Z" transform="translate(-232.254 -199.608)" fill="#fff"/>
    <path id="Path_1779" data-name="Path 1779" d="M320.646,217.683a.646.646,0,0,0,.646-.646v-8.392a.646.646,0,0,0-1.291,0v8.392A.646.646,0,0,0,320.646,217.683Z" transform="translate(-309.026 -199.608)" fill="#fff"/>
    <path id="Path_1780" data-name="Path 1780" d="M160.646,217.683a.646.646,0,0,0,.646-.646v-8.392a.646.646,0,0,0-1.291,0v8.392A.646.646,0,0,0,160.646,217.683Z" transform="translate(-155.481 -199.608)" fill="#fff"/>
  </g>
</svg>
