<svg xmlns="http://www.w3.org/2000/svg" width="21.244" height="18.588" viewBox="0 0 21.244 18.588">
  <path id="Stream_Icon___Font_Awesome-30" data-name="Stream Icon _ Font Awesome-30" d="M.664,35.983H17.924a.664.664,0,0,0,.664-.664V32.664A.664.664,0,0,0,17.924,32H.664A.664.664,0,0,0,0,32.664v2.655A.664.664,0,0,0,.664,35.983ZM20.58,39.3H3.319a.664.664,0,0,0-.664.664v2.655a.664.664,0,0,0,.664.664H20.58a.664.664,0,0,0,.664-.664V39.966A.664.664,0,0,0,20.58,39.3Zm-2.655,7.3H.664A.664.664,0,0,0,0,47.269v2.655a.664.664,0,0,0,.664.664H17.924a.664.664,0,0,0,.664-.664V47.269A.664.664,0,0,0,17.924,46.605Z" transform="translate(0 -32)" fill="#FFFFFF"/>
</svg>
