<svg xmlns="http://www.w3.org/2000/svg" width="13.97" height="13.971" viewBox="0 0 13.97 13.971">
  <g id="link" transform="translate(0.993 1.001)">
    <g id="Group_1383" data-name="Group 1383" transform="translate(-0.993 -1)">
      <g id="Group_1382" data-name="Group 1382">
        <path id="Path_1763" data-name="Path 1763" d="M4.8,182.778l-1.646,1.646a1.746,1.746,0,1,1-2.47-2.469l3.293-3.293a1.746,1.746,0,0,1,2.469,0,.582.582,0,1,0,.823-.823,2.91,2.91,0,0,0-4.116,0l-3.293,3.293a2.91,2.91,0,0,0,4.116,4.116L5.621,183.6a.582.582,0,1,0-.823-.823Z" transform="translate(0.993 -172.13)" fill="#797979"/>
        <path id="Path_1764" data-name="Path 1764" d="M197.844-.148a2.911,2.911,0,0,0-4.116,0l-1.975,1.975a.582.582,0,0,0,.823.823L194.551.675a1.746,1.746,0,0,1,2.47,2.469L193.4,6.766a1.746,1.746,0,0,1-2.469,0,.582.582,0,1,0-.823.823,2.91,2.91,0,0,0,4.116,0l3.622-3.622A2.91,2.91,0,0,0,197.844-.148Z" transform="translate(-184.726 1)" fill="#797979"/>
      </g>
    </g>
  </g>
</svg>
