<svg xmlns="http://www.w3.org/2000/svg" width="14.261" height="19.015" viewBox="0 0 14.261 19.015">
  <path id="Map_Marker_Alt_Icon_-_Regular___Font_Awesome-33" data-name="Map Marker Alt Icon - Regular _ Font Awesome-33" d="M7.131,3.565A3.565,3.565,0,1,0,10.7,7.131,3.569,3.569,0,0,0,7.131,3.565Zm0,5.942A2.377,2.377,0,1,1,9.507,7.131,2.38,2.38,0,0,1,7.131,9.507ZM7.131,0A7.131,7.131,0,0,0,0,7.131c0,2.875,1,3.678,6.4,11.5a.892.892,0,0,0,1.466,0c5.4-7.823,6.4-8.626,6.4-11.5A7.131,7.131,0,0,0,7.131,0Zm0,17.6C1.957,10.12,1.188,9.526,1.188,7.131a5.942,5.942,0,0,1,10.144-4.2,5.9,5.9,0,0,1,1.74,4.2C13.073,9.526,12.3,10.119,7.131,17.6Z" transform="translate(0)" fill="#a6a9b4"/>
</svg>
