<svg id="thumbs" xmlns="http://www.w3.org/2000/svg" width="35.633" height="35.633" viewBox="0 0 35.633 35.633">
  <g id="Group_566" data-name="Group 566" transform="translate(0 10.393)">
    <g id="Group_565" data-name="Group 565">
      <path id="Path_1030" data-name="Path 1030" d="M6.681,32.24H2.227A2.23,2.23,0,0,1,0,30.013V9.227A2.23,2.23,0,0,1,2.227,7H6.681A2.23,2.23,0,0,1,8.908,9.227V30.013A2.23,2.23,0,0,1,6.681,32.24ZM2.227,8.485a.743.743,0,0,0-.742.742V30.013a.743.743,0,0,0,.742.742H6.681a.743.743,0,0,0,.742-.742V9.227a.743.743,0,0,0-.742-.742Z" transform="translate(0 -7)" fill="#006d77"/>
    </g>
  </g>
  <g id="Group_568" data-name="Group 568" transform="translate(7.423 0)">
    <g id="Group_567" data-name="Group 567">
      <path id="Path_1031" data-name="Path 1031" d="M24.8,35.633H22.074c-11.244,0-16.544-3.693-16.764-3.85a.743.743,0,0,1,.861-1.21c.052.037,5.183,3.575,15.9,3.575H24.8a5.179,5.179,0,0,0,5.125-4.341l1.733-10.393a5.2,5.2,0,0,0-5.127-6.052H17.62A.744.744,0,0,1,17,12.21a10.862,10.862,0,0,0,1.361-5.529c0-4.111-1.942-5.2-2.969-5.2-.73,0-1.485,0-1.485,3.712,0,5.591-7.514,9.412-7.833,9.572a.742.742,0,0,1-.665-1.327c.07-.036,7.014-3.572,7.014-8.245,0-3.208.5-5.2,2.969-5.2,1.541,0,4.454,1.4,4.454,6.681a13.277,13.277,0,0,1-1.016,5.2h7.7a6.68,6.68,0,0,1,6.591,7.778L31.385,30.049A6.66,6.66,0,0,1,24.8,35.633Z" transform="translate(-5 0)" fill="#006d77"/>
    </g>
  </g>
</svg>
