<svg xmlns="http://www.w3.org/2000/svg" width="21" height="19" viewBox="0 0 21 19">
  <path id="Path_682" data-name="Path 682" d="M1.5,9.916A3.416,3.416,0,0,1,4.916,6.5,2.562,2.562,0,0,0,7.208,5.084L7.7,4.1a4.48,4.48,0,0,1,.521-.906,2,2,0,0,1,1.025-.634A4.48,4.48,0,0,1,10.289,2.5h3.422a4.479,4.479,0,0,1,1.043.061,2,2,0,0,1,1.025.634A4.482,4.482,0,0,1,16.3,4.1l.492.984A2.562,2.562,0,0,0,19.084,6.5,3.416,3.416,0,0,1,22.5,9.916V15.1c0,2.24,0,3.36-.436,4.216a4,4,0,0,1-1.748,1.748c-.856.436-1.976.436-4.216.436H7.9c-2.24,0-3.36,0-4.216-.436a4,4,0,0,1-1.748-1.748C1.5,18.46,1.5,17.34,1.5,15.1ZM16,14a4,4,0,1,1-4-4A4,4,0,0,1,16,14Zm3-2.5A1.5,1.5,0,1,0,17.5,10,1.5,1.5,0,0,0,19,11.5Z" transform="translate(-1.5 -2.5)" fill="#262f56" fill-rule="evenodd"/>
</svg>
