<svg xmlns="http://www.w3.org/2000/svg" width="11.137" height="11.125" viewBox="0 0 11.137 11.125">
    <g id="pencil" transform="translate(0 -0.247)">
        <path id="Path_3373" data-name="Path 3373" d="M6.877,82.473.75,88.6a.244.244,0,0,0-.064.112L.007,91.439a.241.241,0,0,0,.292.292l2.726-.679a.241.241,0,0,0,.112-.064l6.128-6.128Zm0,0" transform="translate(0 -80.367)" fill="#fff"/>
        <path id="Path_3374" data-name="Path 3374" d="M337.552,1.27l-.682-.682a1.235,1.235,0,0,0-1.706,0l-.836.836,2.388,2.388.836-.836a1.207,1.207,0,0,0,0-1.706Zm0,0" transform="translate(-326.768)" fill="#fff"/>
    </g>
</svg>
