<svg xmlns="http://www.w3.org/2000/svg" width="20.102" height="18.679" viewBox="0 0 20.102 18.679">
    <g id="heart_6_" data-name="heart (6)" transform="translate(0 -16.896)">
        <g id="Group_2601" data-name="Group 2601" transform="translate(0 16.896)">
            <path id="Path_3428" data-name="Path 3428" d="M18.458,18.652a5.493,5.493,0,0,0-8.051,0l-.355.375L9.7,18.651a5.5,5.5,0,0,0-7.768-.285q-.148.137-.285.285a6.165,6.165,0,0,0,0,8.383l7.887,8.317a.718.718,0,0,0,1.016.028l.028-.028,7.884-8.317A6.164,6.164,0,0,0,18.458,18.652Zm-1.04,7.393h0l-7.365,7.768L2.686,26.045a4.711,4.711,0,0,1,0-6.4,4.061,4.061,0,0,1,5.738-.231q.12.111.231.231l.876.924a.74.74,0,0,0,1.043,0l.876-.923a4.061,4.061,0,0,1,5.738-.231q.12.111.231.231A4.668,4.668,0,0,1,17.418,26.045Z" transform="translate(0 -16.896)" fill="#FFF"/>
        </g>
    </g>
</svg>
