<svg xmlns="http://www.w3.org/2000/svg" width="13.711" height="15.67" viewBox="0 0 13.711 15.67">
  <path id="Icon_awesome-bell" data-name="Icon awesome-bell" d="M6.856,15.67a1.958,1.958,0,0,0,1.958-1.959H4.9A1.958,1.958,0,0,0,6.856,15.67Zm6.592-4.582c-.591-.635-1.7-1.591-1.7-4.722A4.833,4.833,0,0,0,7.834,1.617V.979a.979.979,0,1,0-1.958,0v.638A4.833,4.833,0,0,0,1.961,6.366c0,3.131-1.106,4.087-1.7,4.722A.956.956,0,0,0,0,11.752a.98.98,0,0,0,.982.979H12.729a.98.98,0,0,0,.982-.979.956.956,0,0,0-.264-.664Z" transform="translate(0)" fill="#d0d0d0"/>
</svg>
