<svg xmlns="http://www.w3.org/2000/svg" width="13.896" height="13.361" viewBox="0 0 13.896 13.361">
  <path id="Icon_ionic-ios-heart-empty" data-name="Icon ionic-ios-heart-empty" d="M13.529,3.938H13.5a3.8,3.8,0,0,0-3.173,1.737A3.8,3.8,0,0,0,7.15,3.938H7.116A3.776,3.776,0,0,0,3.375,7.712a8.131,8.131,0,0,0,1.6,4.433A27.981,27.981,0,0,0,10.323,17.3a27.981,27.981,0,0,0,5.351-5.154,8.131,8.131,0,0,0,1.6-4.433A3.776,3.776,0,0,0,13.529,3.938Zm1.39,7.656a25.62,25.62,0,0,1-4.6,4.529,25.658,25.658,0,0,1-4.6-4.533A7.206,7.206,0,0,1,4.31,7.712,2.834,2.834,0,0,1,7.123,4.876h.03a2.8,2.8,0,0,1,1.373.361,2.919,2.919,0,0,1,1.015.952.938.938,0,0,0,1.57,0,2.948,2.948,0,0,1,1.015-.952A2.8,2.8,0,0,1,13.5,4.876h.03a2.834,2.834,0,0,1,2.813,2.836A7.3,7.3,0,0,1,14.919,11.593Z" transform="translate(-3.375 -3.938)" fill="rgba(230,66,76,0.6)"/>
</svg>
