<svg xmlns="http://www.w3.org/2000/svg" width="13.101" height="12.598" viewBox="0 0 13.101 12.598">
  <path id="Icon_ionic-ios-heart" data-name="Icon ionic-ios-heart" d="M12.949,3.938h-.031A3.583,3.583,0,0,0,9.926,5.575,3.583,3.583,0,0,0,6.934,3.938H6.9A3.561,3.561,0,0,0,3.375,7.5,7.666,7.666,0,0,0,4.88,11.676a26.382,26.382,0,0,0,5.045,4.86,26.382,26.382,0,0,0,5.045-4.86A7.666,7.666,0,0,0,16.476,7.5,3.561,3.561,0,0,0,12.949,3.938Z" transform="translate(-3.375 -3.938)" fill="rgba(230,66,76,0.6)"/>
</svg>
