<svg xmlns="http://www.w3.org/2000/svg" width="29.438" height="26.635" viewBox="0 0 29.438 26.635">
  <path id="Path_3066" data-name="Path 3066" d="M1.5,12.9A4.789,4.789,0,0,1,6.289,8.107,3.592,3.592,0,0,0,9.5,6.122l.689-1.379a6.28,6.28,0,0,1,.73-1.269,2.8,2.8,0,0,1,1.437-.888A6.28,6.28,0,0,1,13.82,2.5h4.8a6.279,6.279,0,0,1,1.462.085,2.8,2.8,0,0,1,1.437.888,6.282,6.282,0,0,1,.73,1.269l.689,1.379a3.592,3.592,0,0,0,3.213,1.986A4.789,4.789,0,0,1,30.938,12.9v7.266c0,3.14,0,4.711-.611,5.91a5.608,5.608,0,0,1-2.45,2.45c-1.2.611-2.77.611-5.91.611H10.472c-3.14,0-4.711,0-5.91-.611a5.608,5.608,0,0,1-2.45-2.45c-.611-1.2-.611-2.77-.611-5.91Zm20.326,5.724a5.607,5.607,0,1,1-5.607-5.607A5.607,5.607,0,0,1,21.826,18.621Zm4.205-3.5a2.1,2.1,0,1,0-2.1-2.1A2.1,2.1,0,0,0,26.032,15.116Z" transform="translate(-1.5 -2.5)" fill="#262f56" fill-rule="evenodd"/>
</svg>
