<svg xmlns="http://www.w3.org/2000/svg" width="33.726" height="29.901" viewBox="0 0 33.726 29.901">
  <g id="Untitled-1" transform="translate(0)">
    <path id="Path_2998" data-name="Path 2998" d="M165.532,187.7a5.827,5.827,0,0,1-6.312,4,2.786,2.786,0,0,1-2.69-3.136,17.03,17.03,0,0,1,.768-3.821c2.229-7.218,4.524-14.42,6.762-21.638a1.246,1.246,0,0,1,1.339-1.051c.939-.011,1.877-.1,2.992-.168-.791,2.617-1.544,5.1-2.357,7.781h3.278V170c-.822,0-1.648.053-2.464-.015-.777-.065-1.107.216-1.337.971-1.749,5.735-3.549,11.451-5.333,17.174-.084.269-.176.537-.235.811-.183.832.226,1.449,1.068,1.347a5.908,5.908,0,0,0,2.289-.743A17.958,17.958,0,0,0,165.532,187.7Z" transform="translate(-156.52 -161.88)" fill="#fff"/>
    <path id="Path_2999" data-name="Path 2999" d="M469.492,371.054a7.672,7.672,0,0,1-6.967,3.739,4.15,4.15,0,0,1-3.805-3.881,8.252,8.252,0,0,1,.444-3.93c.738-2.046,1.545-4.067,2.253-6.123a22.166,22.166,0,0,0,.849-3.262c.383-2.117.163-2.53-1.616-3.614a3.1,3.1,0,0,1,4.963,2.135,9.465,9.465,0,0,1-.419,4.471c-.71,2.054-1.527,4.072-2.295,6.1A9.48,9.48,0,0,0,462,371.54c.3,1.913,1.437,2.663,3.338,2.17a9,9,0,0,0,3.7-2.25C469.2,371.327,469.343,371.189,469.492,371.054Z" transform="translate(-445.381 -344.922)" fill="#fff"/>
    <path id="Path_3000" data-name="Path 3000" d="M797.918,368.033c.334-1.474.747-3.044,1.036-4.637a8.549,8.549,0,0,0-.514-4.219,8.676,8.676,0,0,1-.426-2.465,1.7,1.7,0,0,1,1.422-1.827,1.782,1.782,0,0,1,2.042,1.458,11.051,11.051,0,0,1-.01,3.335,22.168,22.168,0,0,1-3.478,8.288C797.943,368.038,797.858,368.086,797.918,368.033Z" transform="translate(-769.731 -346.392)" fill="#fff"/>
    <circle id="Ellipse_366" data-name="Ellipse 366" cx="1.858" cy="1.858" r="1.858" transform="translate(30.01 26.163)" fill="#fff"/>
  </g>
</svg>
