<svg xmlns="http://www.w3.org/2000/svg" xmlns:xlink="http://www.w3.org/1999/xlink" width="90" height="90" viewBox="0 0 90 90">
    <defs>
        <filter id="Ellipse_72" x="0" y="0" width="90" height="90" filterUnits="userSpaceOnUse">
            <feOffset dy="3" input="SourceAlpha"/>
            <feGaussianBlur stdDeviation="8" result="blur"/>
            <feFlood flood-opacity="0.082"/>
            <feComposite operator="in" in2="blur"/>
            <feComposite in="SourceGraphic"/>
        </filter>
    </defs>
    <g id="Group_2525" data-name="Group 2525" transform="translate(-238 -192)">
        <g id="Group_2524" data-name="Group 2524" transform="translate(93 68)">
            <g transform="matrix(1, 0, 0, 1, 145, 124)" filter="url(#Ellipse_72)">
                <circle id="Ellipse_72-2" data-name="Ellipse 72" cx="21" cy="21" r="21" transform="translate(24 21)" fill="#fff"/>
            </g>
        </g>
        <path id="Icon_material-phone" data-name="Icon material-phone" d="M7.636,11.249a13.124,13.124,0,0,0,5.709,5.709l1.906-1.906a.861.861,0,0,1,.884-.208,9.882,9.882,0,0,0,3.093.494.869.869,0,0,1,.866.866v3.024a.869.869,0,0,1-.866.866A14.727,14.727,0,0,1,4.5,5.366.869.869,0,0,1,5.366,4.5H8.4a.869.869,0,0,1,.866.866,9.842,9.842,0,0,0,.494,3.093.869.869,0,0,1-.217.884Z" transform="translate(270.5 221.5)" fill="#267c84"/>
    </g>
</svg>
