<svg id="like_1_" data-name="like (1)" xmlns="http://www.w3.org/2000/svg" width="22.096" height="20.623" viewBox="0 0 22.096 20.623">
  <g id="Group_1664" data-name="Group 1664" transform="translate(0 0)">
    <g id="Group_1663" data-name="Group 1663" transform="translate(0 0)">
      <path id="Path_2198" data-name="Path 2198" d="M34.239,254.726H31.293a.737.737,0,0,1-.737-.737V242.2a.737.737,0,0,1,.737-.737h2.946a.737.737,0,0,1,.737.737v11.784A.737.737,0,0,1,34.239,254.726Z" transform="translate(-30.556 -241.468)" fill="#000000"/>
    </g>
  </g>
  <g id="Group_1666" data-name="Group 1666" transform="translate(5.892)">
    <g id="Group_1665" data-name="Group 1665">
      <path id="Path_2199" data-name="Path 2199" d="M166.983,102.477a2.316,2.316,0,0,1-2.347,1.952h-5.742a12.717,12.717,0,0,1,.738,4.355,3.067,3.067,0,0,1-3.074,3.01h-.608a.736.736,0,0,1-.737-.737c0-1.7-.663-4.777-1.914-6.028a8.159,8.159,0,0,0-2.505-1.619V92.36a17.206,17.206,0,0,1,6.075-1.188h4.818A2.24,2.24,0,0,1,163.9,94.2a2.21,2.21,0,0,1,1.473,2.946,2.211,2.211,0,0,1,1.065,3.6A2.205,2.205,0,0,1,166.983,102.477Z" transform="translate(-150.794 -91.172)" fill="#000000"/>
    </g>
  </g>
</svg>
