<svg xmlns="http://www.w3.org/2000/svg" width="68.297" height="137.806" viewBox="0 0 68.297 137.806">
  <g id="Group_2205" data-name="Group 2205" transform="translate(-153.352 -369.194)">
    <text id="tvilu" transform="translate(157 499)" fill="#fff" font-size="32" font-family="AmerigoBT-BoldA" letter-spacing="0.01em"><tspan x="0" y="0">tvilu</tspan></text>
    <g id="new_logo" data-name="new logo" transform="translate(69.332 109.6)">
      <path id="Path_2960" data-name="Path 2960" d="M152.317,279.4,127.3,344.016H112.58a5.258,5.258,0,0,1-.525-.027c-2.728-.293-23.277-3.3-27.818-27.781a13.143,13.143,0,0,1-.217-2.412V259.6s16.044-.957,15.309,19.5l17.075.295v15.307h-17v17.913a13.86,13.86,0,0,0,1.215,5.681c2,4.447,6.7,11.692,15.9,10.611L136.053,279.4Z" fill="#fff"/>
    </g>
  </g>
</svg>
