<svg xmlns="http://www.w3.org/2000/svg" width="99.79" height="169.237" viewBox="0 0 99.79 169.237">
  <g id="Group_2237" data-name="Group 2237" transform="translate(-137.605 -321.763)">
    <g id="Untitled-1" transform="translate(137.605 321.763)">
      <path id="Path_2998" data-name="Path 2998" d="M183.186,238.27c-2.978,8.2-10.621,13.057-18.678,11.823-5.3-.811-8.325-3.975-7.959-9.278a50.39,50.39,0,0,1,2.273-11.3c6.6-21.356,13.387-42.666,20.008-64.025.674-2.174,1.736-3.085,3.961-3.109,2.778-.031,5.552-.3,8.852-.5-2.339,7.742-4.567,15.08-6.973,23.023h9.7v.989c-2.431,0-4.875.156-7.29-.045-2.3-.191-3.275.639-3.957,2.872-5.174,16.968-10.5,33.882-15.78,50.815-.248.8-.52,1.588-.7,2.4-.542,2.461.668,4.288,3.159,3.987a17.481,17.481,0,0,0,6.774-2.2C179,242.271,181,240.12,183.186,238.27Z" transform="translate(-156.52 -161.88)" fill="#fff"/>
      <path id="Path_2999" data-name="Path 2999" d="M490.731,405.773c-3.475,6.845-13.166,11.907-20.614,11.062-6.324-.717-10.4-4.914-11.259-11.483a24.418,24.418,0,0,1,1.314-11.629c2.184-6.053,4.571-12.034,6.667-18.116a65.6,65.6,0,0,0,2.512-9.652c1.133-6.263.483-7.487-4.782-10.693,5.645-4.373,13.653-.923,14.683,6.318a28.009,28.009,0,0,1-1.241,13.228c-2.1,6.079-4.517,12.048-6.789,18.062-1.741,4.626-3.43,9.247-2.643,14.343.875,5.659,4.253,7.878,9.876,6.422,4.321-1.12,7.72-3.755,10.955-6.658C489.853,406.582,490.29,406.173,490.731,405.773Z" transform="translate(-419.39 -328.452)" fill="#fff"/>
      <path id="Path_3000" data-name="Path 3000" d="M797.959,393.823c.989-4.362,2.209-9.008,3.064-13.721.771-4.258-.179-8.386-1.522-12.482a25.67,25.67,0,0,1-1.26-7.295,5.027,5.027,0,0,1,4.206-5.407,5.274,5.274,0,0,1,6.044,4.313,32.707,32.707,0,0,1-.03,9.868c-1.486,8.943-5.438,16.944-10.29,24.523C798.033,393.836,797.781,393.979,797.959,393.823Z" transform="translate(-714.556 -329.791)" fill="#fff"/>
      <circle id="Ellipse_366" data-name="Ellipse 366" cx="5.497" cy="5.497" r="5.497" transform="translate(88.797 77.411)" fill="#fff"/>
    </g>
    <text id="tvilu" transform="translate(148 472)" fill="#fff" font-size="24" letter-spacing="0.03em"><tspan x="0" y="0">TVILU</tspan></text>
  </g>
</svg>
