<svg id="checked_4_" data-name="checked (4)" xmlns="http://www.w3.org/2000/svg" width="71.884" height="71.884" viewBox="0 0 71.884 71.884">
    <g id="Group_2577" data-name="Group 2577" transform="translate(17.068 9.031)">
        <g id="Group_2576" data-name="Group 2576">
            <path id="Path_3415" data-name="Path 3415" d="M174.328,65.123a2.709,2.709,0,0,0-3.831,0L138,97.534,126.27,84.8a2.709,2.709,0,0,0-3.986,3.67l13.636,14.809a2.706,2.706,0,0,0,1.935.873h.058a2.712,2.712,0,0,0,1.913-.79l34.5-34.407A2.709,2.709,0,0,0,174.328,65.123Z" transform="translate(-121.568 -64.327)" fill="#8bc350"/>
        </g>
    </g>
    <g id="Group_2579" data-name="Group 2579">
        <g id="Group_2578" data-name="Group 2578">
            <path id="Path_3416" data-name="Path 3416" d="M69.175,33.233a2.709,2.709,0,0,0-2.709,2.709A30.524,30.524,0,1,1,35.942,5.418a2.709,2.709,0,1,0,0-5.418A35.942,35.942,0,1,0,71.884,35.942,2.709,2.709,0,0,0,69.175,33.233Z" fill="#8bc350"/>
        </g>
    </g>
</svg>
