<svg xmlns="http://www.w3.org/2000/svg" width="12.218" height="12.241" viewBox="0 0 12.218 12.241">
  <g id="Group_23" data-name="Group 23" transform="translate(-119.5 -535)">
    <path id="Icon_feather-phone" data-name="Icon feather-phone" d="M14.385,11.415v1.692a1.128,1.128,0,0,1-1.23,1.128A11.162,11.162,0,0,1,8.288,12.5,11,11,0,0,1,4.9,9.12a11.162,11.162,0,0,1-1.732-4.89A1.128,1.128,0,0,1,4.295,3H5.987a1.128,1.128,0,0,1,1.128.97A7.242,7.242,0,0,0,7.51,5.555a1.128,1.128,0,0,1-.254,1.19l-.716.716a9.024,9.024,0,0,0,3.384,3.384l.716-.716a1.128,1.128,0,0,1,1.19-.254,7.242,7.242,0,0,0,1.585.395,1.128,1.128,0,0,1,.97,1.145Z" transform="translate(116.832 532.5)" fill="none" stroke="rgba(112,112,112,0.85)" stroke-linecap="round" stroke-linejoin="round" stroke-width="1"/>
  </g>
</svg>
