<svg xmlns="http://www.w3.org/2000/svg" xmlns:xlink="http://www.w3.org/1999/xlink" width="45.724" height="54.633" viewBox="0 0 45.724 54.633">
  <defs>
    <filter id="location-pin_5_" x="0" y="0" width="45.724" height="54.633" filterUnits="userSpaceOnUse">
      <feOffset dy="3" input="SourceAlpha"/>
      <feGaussianBlur stdDeviation="3" result="blur"/>
      <feFlood flood-opacity="0.341"/>
      <feComposite operator="in" in2="blur"/>
      <feComposite in="SourceGraphic"/>
    </filter>
  </defs>
  <g transform="matrix(1, 0, 0, 1, 0, 0)" filter="url(#location-pin_5_)">
    <path id="location-pin_5_2" data-name="location-pin (5)" d="M16.362,0A13.426,13.426,0,0,0,3,13.459C3,24,15.106,34.893,15.621,35.35a1.116,1.116,0,0,0,1.482,0C17.618,34.893,29.724,24,29.724,13.459A13.426,13.426,0,0,0,16.362,0Zm0,20.786a7.423,7.423,0,1,1,7.423-7.423A7.432,7.432,0,0,1,16.362,20.786Z" transform="translate(6.5 6.5)" fill="#006d77" stroke="#fff" stroke-width="1"/>
  </g>
</svg>
