<svg xmlns="http://www.w3.org/2000/svg" width="15.268" height="17.45" viewBox="0 0 15.268 17.45">
  <g id="shield_5_" data-name="shield (5)" transform="translate(-32.012 0)">
    <path id="Path_3342" data-name="Path 3342" d="M47.021,2.2,39.751.016a.364.364,0,0,0-.209,0L32.272,2.2a.364.364,0,0,0-.26.348v8c0,3.214,4.9,6.074,7.526,6.891a.364.364,0,0,0,.218,0c2.622-.817,7.523-3.677,7.523-6.891v-8A.364.364,0,0,0,47.021,2.2Z" transform="translate(0 0)" fill="#2a9d8f"/>
    <path id="Path_3343" data-name="Path 3343" d="M142.067,176.367a.363.363,0,0,1-.257-.106l-2.908-2.908a.364.364,0,0,1,.514-.514l2.652,2.651,4.832-4.832a.364.364,0,1,1,.523.505l-.009.009-5.089,5.089A.364.364,0,0,1,142.067,176.367Z" transform="translate(-103.148 -164.734)" fill="#fafafa"/>
  </g>
</svg>
