<svg xmlns="http://www.w3.org/2000/svg" width="49.219" height="44.532" viewBox="0 0 49.219 44.532">
  <path id="Path_3406" data-name="Path 3406" d="M1.5,19.882a8.007,8.007,0,0,1,8.007-8.007,6.005,6.005,0,0,0,5.371-3.32L16.031,6.25a10.5,10.5,0,0,1,1.221-2.122,4.688,4.688,0,0,1,2.4-1.485A10.5,10.5,0,0,1,22.1,2.5H30.12a10.5,10.5,0,0,1,2.444.143,4.688,4.688,0,0,1,2.4,1.485A10.5,10.5,0,0,1,36.188,6.25l1.153,2.305a6.005,6.005,0,0,0,5.371,3.32,8.007,8.007,0,0,1,8.007,8.007V32.032c0,5.251,0,7.876-1.022,9.881a9.376,9.376,0,0,1-4.1,4.1c-2.006,1.022-4.631,1.022-9.881,1.022H16.5c-5.251,0-7.876,0-9.881-1.022a9.376,9.376,0,0,1-4.1-4.1C1.5,39.907,1.5,37.282,1.5,32.032Zm33.985,9.571a9.375,9.375,0,1,1-9.375-9.375A9.375,9.375,0,0,1,35.485,29.453Zm7.031-5.859A3.516,3.516,0,1,0,39,20.078,3.516,3.516,0,0,0,42.516,23.594Z" transform="translate(-1.5 -2.5)" fill="#fff" fill-rule="evenodd" opacity="0.765"/>
</svg>
