<svg xmlns="http://www.w3.org/2000/svg" xmlns:xlink="http://www.w3.org/1999/xlink" width="32.552" height="37.302" viewBox="0 0 32.552 37.302">
  <defs>
    <filter id="location-pin_5_" x="0" y="0" width="32.552" height="37.302" filterUnits="userSpaceOnUse">
      <feOffset dy="3" input="SourceAlpha"/>
      <feGaussianBlur stdDeviation="3" result="blur"/>
      <feFlood flood-opacity="0.09"/>
      <feComposite operator="in" in2="blur"/>
      <feComposite in="SourceGraphic"/>
    </filter>
  </defs>
  <g transform="matrix(1, 0, 0, 1, 0, 0)" filter="url(#location-pin_5_)">
    <path id="location-pin_5_2" data-name="location-pin (5)" d="M10.126,0A7.16,7.16,0,0,0,3,7.177C3,12.8,9.456,18.608,9.731,18.852a.6.6,0,0,0,.79,0c.275-.245,6.731-6.051,6.731-11.675A7.16,7.16,0,0,0,10.126,0Zm0,11.085a3.959,3.959,0,1,1,3.959-3.959A3.963,3.963,0,0,1,10.126,11.085Z" transform="translate(6.15 6.15)" fill="#006d77" stroke="#fff" stroke-width="0.3"/>
  </g>
</svg>
