<svg xmlns="http://www.w3.org/2000/svg" width="17.092" height="17.092" viewBox="0 0 17.092 17.092">
  <g id="mars_2_" data-name="mars (2)" opacity="0.53">
    <path id="Path_3356" data-name="Path 3356" d="M25.728,113.667A5.7,5.7,0,1,1,21.7,112,5.692,5.692,0,0,1,25.728,113.667Zm0,0" transform="translate(-15.288 -107.015)" fill="#006d77"/>
    <path id="Path_3357" data-name="Path 3357" d="M17.083.62a.705.705,0,0,0-.044-.176.021.021,0,0,1,0-.005h0a.725.725,0,0,0-.1-.161L16.912.244a.727.727,0,0,0-.136-.123l0,0A.7.7,0,0,0,16.61.041L16.567.028A.71.71,0,0,0,16.38,0H11.395a.712.712,0,1,0,0,1.424H14.66L10.41,5.675a6.414,6.414,0,1,0,1.007,1.007l4.251-4.251V5.7a.712.712,0,1,0,1.424,0V.712c0-.015,0-.029,0-.044S17.085.636,17.083.62ZM6.409,15.667a4.988,4.988,0,1,1,4.985-4.985A4.99,4.99,0,0,1,6.409,15.667Zm0,0" fill="#006d77"/>
  </g>
</svg>
