<svg xmlns="http://www.w3.org/2000/svg" width="14.455" height="13.836" viewBox="0 0 14.455 13.836">
  <g id="Group_22" data-name="Group 22" transform="translate(42.143 -1)" opacity="0.719">
    <path id="Icon_awesome-star" data-name="Icon awesome-star" d="M7.893.48,6.129,4.058l-3.947.576A.865.865,0,0,0,1.7,6.108L4.559,8.891l-.675,3.931a.864.864,0,0,0,1.254.911l3.531-1.856L12.2,13.733a.865.865,0,0,0,1.254-.911l-.675-3.931,2.856-2.783a.865.865,0,0,0-.478-1.475l-3.947-.576L9.444.48a.865.865,0,0,0-1.551,0Z" transform="translate(-43.584 1.001)" fill="#ffc107"/>
  </g>
</svg>
