<svg xmlns="http://www.w3.org/2000/svg" width="12.135" height="16.18" viewBox="0 0 12.135 16.18">
  <g id="placeholder_6_" data-name="placeholder (6)" transform="translate(-64)">
    <g id="Group_2483" data-name="Group 2483" transform="translate(64)">
      <g id="Group_2482" data-name="Group 2482">
        <path id="Path_3340" data-name="Path 3340" d="M70.068,0A6.074,6.074,0,0,0,64,6.068c0,4.206,5.477,9.732,5.71,9.965a.508.508,0,0,0,.716,0c.233-.234,5.71-5.759,5.71-9.965A6.074,6.074,0,0,0,70.068,0Zm0,14.944c-1.207-1.292-5.056-5.663-5.056-8.876a5.056,5.056,0,0,1,10.113,0C75.124,9.277,71.275,13.651,70.068,14.944Z" transform="translate(-64)" fill="#4f5d7a"/>
      </g>
    </g>
    <g id="Group_2485" data-name="Group 2485" transform="translate(67.034 3.034)">
      <g id="Group_2484" data-name="Group 2484">
        <path id="Path_3341" data-name="Path 3341" d="M163.034,96a3.034,3.034,0,1,0,3.034,3.034A3.038,3.038,0,0,0,163.034,96Zm0,5.056a2.023,2.023,0,1,1,2.023-2.023A2.025,2.025,0,0,1,163.034,101.056Z" transform="translate(-160 -96)" fill="#4f5d7a"/>
      </g>
    </g>
  </g>
</svg>
