<svg xmlns="http://www.w3.org/2000/svg" width="18.229" height="10.591" viewBox="0 0 18.229 10.591">
  <g id="filter_1_" data-name="filter (1)" transform="translate(-64.267 -208.867)">
    <path id="Path_2447" data-name="Path 2447" d="M81.782,210.394h-1.7a2.24,2.24,0,0,0-4.247,0H64.98a.713.713,0,1,0,0,1.426H75.84a2.24,2.24,0,0,0,4.247,0h1.7a.713.713,0,1,0,0-1.426Zm-3.819,1.527a.814.814,0,1,1,.814-.814A.815.815,0,0,1,77.964,211.922Z" transform="translate(0)" fill="#FFFFFF"/>
    <path id="Path_2448" data-name="Path 2448" d="M81.782,338.927H73.977a2.24,2.24,0,0,0-4.247,0H64.98a.713.713,0,0,0,0,1.426h4.75a2.24,2.24,0,0,0,4.247,0h7.805a.713.713,0,1,0,0-1.426Zm-9.929,1.528a.814.814,0,1,1,.814-.814A.815.815,0,0,1,71.854,340.455Z" transform="translate(0 -122.423)" fill="#FFFFFF"/>
  </g>
</svg>
